Iron Man 3 {2013} HDCAM 1080P AC3 - $MURDER$
 
http://www.imdb.com/title/tt1300854/

Complete name                            : Iron Man 3 {2013} HDCAM 1080P AC3 - $MURDER$
Format                                   : Matroska
Format version                           : Version 1
File size                                : 1.65 GiB
Duration                                 : 1h 58mn
Overall bit rate                         : 1 998 Kbps
Encoded date                             : UTC 2013-05-01 00:03:10
ENCODER                                  : DOCMURDER82   Fumbling Towards Ecstasy

Video
ID                                       : 1
Format                                   : AVC
Format/Info                              : Advanced Video Codec
Format profile                           : High@L3.0
Format settings, CABAC                   : No
Format settings, ReFrames                : 1 frame
Codec ID                                 : V_MPEG4/ISO/AVC
Duration                                 : 1h 58mn
Bit rate                                 : 1 800 Kbps
Width                                    : 1 920 pixels
Height                                   : 804 pixels
Display aspect ratio                     : 2.40:1
Frame rate                               : 25.000 fps
Color space                              : YUV
Chroma subsampling                       : 4:2:0
Bit depth                                : 8 bits
Scan type                                : Progressive
Bits/(Pixel*Frame)                       : 0.047
Stream size                              : 1.46 GiB (88%)
Writing library                          : x264 core
Default                                  : Yes
Forced                                   : No

Audio
ID                                       : 2
Format                                   : AC-3
Format/Info                              : Audio Coding 3
Mode extension                           : CM (complete main)
Codec ID                                 : A_AC3
Duration                                 : 1h 58mn
Bit rate mode                            : Constant
Bit rate                                 : 192 Kbps
Channel(s)                               : 2 channels
Channel positions                        : Front: L R
Sampling rate                            : 48.0 KHz
Bit depth                                : 16 bits
Compression mode                         : Lossy
Stream size                              : 162 MiB (10%)
Default                                  : Yes
Forced                                   : No

Note:-
Look sample for quality